<svg version="1.1" xmlns="http://www.w3.org/2000/svg" viewBox="0 0 1406.7137569017887 1110.5899733071483" width="2813.4275138035773" height="2221.1799466142966">
  <!-- svg-source:excalidraw -->
  
  <defs>
    <style>
      @font-face {
        font-family: "Virgil";
        src: url("https://excalidraw.com/Virgil.woff2");
      }
      @font-face {
        font-family: "Cascadia";
        src: url("https://excalidraw.com/Cascadia.woff2");
      }
    </style>
  </defs>
  <rect x="0" y="0" width="1406.7137569017887" height="1110.5899733071483" fill="#ffffff"></rect><g stroke-linecap="round" transform="translate(196.904296875 20.8046875) rotate(0 84.546875 57.130859375)"><path d="M1.87 -0.35 C35.25 0.32, 70.48 -2.63, 168.15 1.84 M-0.27 -0.69 C43.44 -1.78, 85.83 -2.21, 170.07 0.13 M168.31 -1.29 C170.19 26.45, 169.51 56.36, 168.94 115.7 M170.05 -0.82 C168.9 34.39, 169.26 67.8, 169.85 114.28 M170.16 115.27 C119.25 110.97, 69.39 110.73, 0.88 113.29 M169.02 115.17 C109.35 113.97, 50.01 113.81, 0.01 113.84 M-1.3 115.5 C-1.16 86.27, 1.11 56.22, 1.67 1.68 M-0.48 114.09 C-1.48 74.61, -0.01 32.91, -0.5 0.21" stroke="#000000" stroke-width="1" fill="none"></path></g><g stroke-linecap="round" transform="translate(187.630859375 10) rotate(0 84.546875 57.130859375)"><path d="M-0.06 0.88 L169.27 -1.37 L167.48 115.45 L-0.84 112.59" stroke="none" stroke-width="0" fill="#ffffff"></path><path d="M-0.46 0.12 C57.16 -0.26, 110.48 1.14, 169.87 -1.18 M-0.57 -0.78 C60.98 0.41, 122.16 0.2, 169.3 0.98 M168.14 0.12 C168.73 44.26, 170.43 85.47, 168.85 114.19 M168.35 -0.87 C169.56 29.58, 170.14 58.52, 170.05 114.33 M167.8 114.73 C122.77 114.47, 76.52 112.53, 0.23 113.72 M168.49 114.62 C110.03 114.46, 51.86 114.68, -0.82 114.42 M1.75 114.8 C-0.39 84.47, -0.06 54.02, -0.76 0.57 M-0.39 115.04 C-1.51 69.19, -1 26.04, -0.76 -0.04" stroke="#000000" stroke-width="1" fill="none"></path></g><g transform="translate(192.630859375 54.630859375) rotate(0 79.5 12.5)"><text x="79.5" y="18" font-family="Virgil, Segoe UI Emoji" font-size="20px" fill="#000000" text-anchor="middle" style="white-space: pre;" direction="ltr">F5 loadbalancer</text></g><g stroke-linecap="round" transform="translate(761.8671875 20.8046875) rotate(0 84.546875 57.130859375)"><path d="M-1.49 -0.13 C42.21 -0.66, 82.85 2.06, 170.92 -0.92 M0.27 -0.77 C58.88 0.76, 118.06 2.09, 169 -0.08 M169.62 -0.3 C169.25 28.78, 167.91 60.14, 169.4 113.74 M168.59 -0.69 C169.52 42.9, 168.82 84.8, 168.56 113.42 M170.06 113.13 C113.42 113.57, 55.4 113.1, 1.12 113.89 M168.93 114.79 C105.58 114.14, 41.34 113.33, 0.78 114.09 M-0.07 115.25 C-1.46 70.97, -2.72 31.19, 0.64 -1.22 M-0.28 114.52 C0.81 81.68, 0.3 47.61, 0.86 0.51" stroke="#000000" stroke-width="1" fill="none"></path></g><g stroke-linecap="round" transform="translate(752.59375 10) rotate(0 84.546875 57.130859375)"><path d="M-1.54 1.37 L169.76 -1.8 L167.29 112.94 L-0.31 114.72" stroke="none" stroke-width="0" fill="#ffffff"></path><path d="M-0.13 0.17 C34.95 0.03, 73.99 3.08, 168.18 1 M-0.77 -0.26 C40.54 -0.67, 83.06 -0.54, 169.01 -0.32 M168.79 0.83 C167.35 27.03, 168.12 55.4, 168.57 115.61 M168.4 0.36 C169.51 34.6, 169.44 69.35, 168.25 114.6 M167.96 115.06 C109.19 114.32, 49.06 116.19, -0.37 115.79 M169.62 114.38 C127.76 113.49, 85.81 114.77, -0.17 114.93 M0.99 113.64 C-0.52 69.76, 1.67 29.68, -1.22 -0.18 M0.26 114.18 C0.05 88.32, -0.79 64.4, 0.51 -0.68" stroke="#000000" stroke-width="1" fill="none"></path></g><g transform="translate(757.59375 54.630859375) rotate(0 79.5 12.5)"><text x="79.5" y="18" font-family="Virgil, Segoe UI Emoji" font-size="20px" fill="#000000" text-anchor="middle" style="white-space: pre;" direction="ltr">F5 loadbalancer</text></g><g stroke-linecap="round" transform="translate(1216.6576339437806 20.8046875) rotate(0 84.546875 57.130859375)"><path d="M-0.6 0.17 C46.01 0.93, 94.53 1.06, 168.02 0.69 M0.97 0.33 C65.21 0.79, 132.9 1.39, 169.2 0.98 M168.51 -1.94 C172.04 42.05, 168.5 87.25, 169.25 115.92 M170.01 0.6 C169.74 27.88, 168.88 56.79, 170.05 114.08 M170.44 116.16 C116.32 112.69, 59.24 111.89, 1.54 115.53 M168.67 113.49 C113.75 114.64, 58.98 114.93, -0.6 115 M-0.42 112.89 C1.1 84.55, 0.07 54.96, -1.98 1.85 M0.13 115.25 C1.66 69.05, 0.51 24.41, -0.89 -0.18" stroke="#000000" stroke-width="1" fill="none"></path></g><g stroke-linecap="round" transform="translate(1207.3841964437806 10) rotate(0 84.546875 57.130859375)"><path d="M0.39 1.37 L171 1.48 L169.16 112.69 L-0.97 112.45" stroke="none" stroke-width="0" fill="#ffffff"></path><path d="M0.17 -0.76 C64.02 1.49, 126.75 -0.56, 169.78 1.82 M0.33 -0.91 C56.46 -0.98, 113.57 -1.52, 170.07 0.79 M167.16 1.96 C168.23 42.56, 170.17 88.44, 170.75 113.28 M169.69 0.61 C168.03 34.37, 168.25 70.19, 168.91 114.46 M170.99 115.61 C104.32 113.77, 39.01 116.94, 1.27 114.77 M168.33 113.99 C135.21 113.56, 101 112.93, 0.73 113.89 M-1.37 116 C-0.54 74.32, -0.15 31, 1.85 1.86 M0.99 115.01 C0.15 88.72, 0.42 63.09, -0.18 0.99" stroke="#000000" stroke-width="1" fill="none"></path></g><g transform="translate(1212.3841964437806 54.630859375) rotate(0 79.5 12.5)"><text x="79.5" y="18" font-family="Virgil, Segoe UI Emoji" font-size="20px" fill="#000000" text-anchor="middle" style="white-space: pre;" direction="ltr">F5 loadbalancer</text></g><g stroke-linecap="round" transform="translate(1207.6200069017887 357.744140625) rotate(0 84.546875 57.130859375)"><path d="M0.54 -1.32 C53.18 2.25, 103.97 3.09, 167.19 1.79 M0.83 0.9 C35.32 -0.49, 70.89 -1.46, 170.03 0.42 M169.57 1.71 C166.76 23.5, 166.58 50.03, 167.87 112.91 M168.4 0.43 C168.51 36.55, 168.32 74.51, 169.33 113.74 M168.44 112.96 C131.97 115.39, 92.8 114.81, -0.12 114.49 M168.92 113.77 C128.11 112.38, 87.27 113.96, 0.04 114.53 M0.79 113.98 C-0.46 86.31, -0.26 56.92, -1.24 -0.51 M-0.3 113.44 C0.33 89.66, -0.58 65.77, 0.84 0.64" stroke="#000000" stroke-width="1" fill="none"></path></g><g stroke-linecap="round" transform="translate(1217.6200069017887 367.744140625) rotate(0 84.546875 57.130859375)"><path d="M-0.92 -1.53 C55.92 -0.08, 108.09 1.64, 168.42 1.39 M-0.6 -0.39 C39.29 0.56, 77.64 -0.38, 169.41 0.61 M169.19 1.08 C167.86 30.4, 168.58 59.93, 169.97 113.08 M168.21 0.66 C169.23 32.35, 168.8 64.16, 169.84 113.83 M170.25 114.86 C112.55 113.36, 53.76 112.78, 1.1 113.12 M168.37 114.32 C122.61 116.72, 78.25 116.21, -0.67 115.11 M0.14 115.88 C2.35 90.82, -0.76 67.72, 1 -0.07 M0.95 114.12 C0.79 69.73, 0.72 25.3, -0.2 -0.88" stroke="#000000" stroke-width="1" fill="none"></path></g><g stroke-linecap="round" transform="translate(1227.6200069017887 377.744140625) rotate(0 84.546875 57.130859375)"><path d="M1.19 -1.22 C37.99 1.8, 78.02 2.69, 167.72 0.86 M0.21 0.23 C46.91 -0.06, 95.18 1.26, 168.77 -0.65 M168.61 -0.12 C169.38 42.08, 170.02 85.22, 168.75 113.28 M169.79 0.04 C168.35 36.76, 168.83 74, 169.49 114.12 M169.96 113.02 C114.49 112.95, 62.02 113.62, -0.59 112.61 M168.35 115.1 C102.83 114.69, 34.62 115.2, -0.96 113.31 M1.26 114.15 C-1.94 83.61, 0.91 52.64, 1.7 -0.6 M0.45 113.72 C-0.71 78.97, -1.29 44.74, -0.97 0.69" stroke="#000000" stroke-width="1" fill="none"></path></g><g stroke-linecap="round" transform="translate(1197.6200069017887 347.744140625) rotate(0 84.546875 57.130859375)"><path d="M1.68 1.27 L169.76 -1.34 L170.78 112.35 L-1.91 113.65" stroke="none" stroke-width="0" fill="#ffffff"></path><path d="M0.52 -1.92 C42.8 -1.48, 85.41 0.47, 168.48 1.47 M-0.28 0.42 C35.44 2.41, 68.9 1.74, 168.69 -0.75 M167.37 -0.38 C170.04 46.69, 168.22 89.04, 167.56 115.46 M168.76 0.69 C167.63 27.74, 168.12 54.03, 168.71 114.47 M169.72 115.48 C113.75 111.75, 61.27 113.15, 1.08 113.78 M169.53 113.67 C119.24 112.82, 69.98 112.43, 0.66 114.96 M1.5 113.41 C0.48 79.21, 0.09 45.88, 0.6 0.86 M0.55 113.69 C0 86.23, 1.25 59.12, 0.05 -0.75" stroke="#000000" stroke-width="1" fill="none"></path></g><g transform="translate(1202.6200069017887 379.875) rotate(0 79.5 25)"><text x="79.5" y="18" font-family="Virgil, Segoe UI Emoji" font-size="20px" fill="#000000" text-anchor="middle" style="white-space: pre;" direction="ltr">Mini-OTP app </text><text x="79.5" y="43" font-family="Virgil, Segoe UI Emoji" font-size="20px" fill="#000000" text-anchor="middle" style="white-space: pre;" direction="ltr">servers</text></g><g stroke-linecap="round" transform="translate(196.515625 191.94921875) rotate(0 84.546875 57.130859375)"><path d="M-0.68 1.39 C39.04 0.43, 80.45 -1.62, 168.32 0.41 M0.31 0.61 C54.36 0.55, 110.16 1.25, 169.64 -0.24 M169.97 -1.18 C168.88 32.59, 169.74 65.37, 170.42 115.66 M169.84 -0.43 C169.8 34.63, 169.6 70.12, 169.39 114.69 M170.2 113.12 C128.24 111.07, 90.48 111.27, 0.11 112.77 M168.42 115.11 C103.22 113.87, 38.95 114.9, 0.81 114.89 M1 114.19 C2.76 80.04, 1.07 48.91, -0.27 0.89 M-0.2 113.38 C-1.4 86.9, -1.36 58.35, -0.01 -0.31" stroke="#000000" stroke-width="1" fill="none"></path></g><g stroke-linecap="round" transform="translate(188.01953125 181.822265625) rotate(0 84.546875 57.130859375)"><path d="M0.85 -0.87 L167.74 -1.68 L167.51 113.92 L1.52 113.21" stroke="none" stroke-width="0" fill="#ffffff"></path><path d="M-0.71 -0.97 C35.79 0.26, 66.55 0.07, 169.9 0.38 M-0.53 0.17 C63.39 0.94, 126 -0.24, 169.29 -0.11 M168.45 -1.5 C170.79 41.61, 169.94 86.53, 169.49 114 M169.03 0.95 C169.47 23.9, 169.07 47.02, 168.99 113.48 M170.67 112.79 C125.97 111.05, 83.89 110.69, 0.78 114.58 M169.02 114.62 C128.55 113.25, 86.75 114.09, 0.37 114.83 M1.35 116.26 C0.61 73.56, -0.23 29.87, -1.29 -1.73 M0.49 115.2 C0.14 80.52, 0.09 47.54, 0.99 -0.92" stroke="#000000" stroke-width="1" fill="none"></path></g><g transform="translate(193.01953125 213.953125) rotate(0 79.5 25)"><text x="79.5" y="18" font-family="Virgil, Segoe UI Emoji" font-size="20px" fill="#000000" text-anchor="middle" style="white-space: pre;" direction="ltr">Citrix </text><text x="79.5" y="43" font-family="Virgil, Segoe UI Emoji" font-size="20px" fill="#000000" text-anchor="middle" style="white-space: pre;" direction="ltr">loadbalancer</text></g><g stroke-linecap="round" transform="translate(60.33984375 611.0859375) rotate(0 84.546875 57.130859375)"><path d="M-1.44 1.11 C40.94 1.52, 83.89 1.92, 167.39 1.11 M0.08 -0.97 C39.49 -2, 80.97 -2.58, 169.32 0.3 M168.07 1.51 C171.03 24.5, 169.62 50.14, 167.14 112.33 M169.83 -0.85 C168.41 30.75, 168.35 61.67, 168.27 115.17 M167.86 115.35 C133.63 115.27, 95.84 114.12, -1.38 115.89 M169.71 114.4 C108.52 116.45, 48.82 114.9, 0.28 115.07 M0.48 112.91 C-0.2 85.55, 2.72 58.41, 0.55 1.21 M0.53 115 C-0.08 89.65, -0.53 62.79, -0.63 -0.34" stroke="#000000" stroke-width="1" fill="none"></path></g><g stroke-linecap="round" transform="translate(51.84375 600.958984375) rotate(0 84.546875 57.130859375)"><path d="M0.8 -0.53 L167.63 1.95 L167.66 112.51 L0.36 113.47" stroke="none" stroke-width="0" fill="#ffffff"></path><path d="M1.11 -1.35 C50.2 0.52, 99.7 -0.49, 170.21 -1.26 M-0.97 -0.55 C64.49 0.76, 128.79 0.09, 169.4 -0.77 M170.6 1.28 C168.97 40.68, 169.14 79.67, 167.16 113.66 M168.24 0.05 C168.19 26.91, 168.24 52.99, 170.01 113.43 M170.18 115.49 C118.15 113.35, 66.2 111.84, 1.63 115.32 M169.23 113.36 C104.91 114.38, 38.55 115.57, 0.81 113.69 M-1.35 113.21 C-0.26 90.39, 0.4 63.33, 1.21 -1.55 M0.74 114.91 C1.96 72.92, 0.52 30.56, -0.34 0.42" stroke="#000000" stroke-width="1" fill="none"></path></g><g transform="translate(56.84375 633.08984375) rotate(0 79.5 25)"><text x="79.5" y="18" font-family="Virgil, Segoe UI Emoji" font-size="20px" fill="#000000" text-anchor="middle" style="white-space: pre;" direction="ltr">Citrix SQL </text><text x="79.5" y="43" font-family="Virgil, Segoe UI Emoji" font-size="20px" fill="#000000" text-anchor="middle" style="white-space: pre;" direction="ltr">backend</text></g><g stroke-linecap="round" transform="translate(587.6595275594836 611.0859375) rotate(0 84.546875 57.130859375)"><path d="M-1.32 -1.6 C50.7 -0.24, 104.87 3, 167.7 0.53 M-0.09 0.26 C51.9 1.32, 103.29 1.72, 169.94 -0.09 M170.79 0.58 C169.88 37.17, 171.33 73.62, 169.38 114.05 M169.43 -0.75 C168.86 37.97, 168.09 74.45, 169.52 115.09 M170.98 114.62 C103.53 113.53, 37.12 113.83, -0.85 113.33 M169.56 113.64 C115.75 114.75, 60.45 114.83, 0.44 114.49 M-1.31 112.94 C-2.95 75.79, -0.1 40.93, 1.27 -0.7 M-0.01 114.74 C1.2 86.91, 1.27 57.37, 0.32 -0.84" stroke="#000000" stroke-width="1" fill="none"></path></g><g stroke-linecap="round" transform="translate(579.1634338094836 600.958984375) rotate(0 84.546875 57.130859375)"><path d="M1.66 -1.11 L168.19 -0.16 L171.06 115.69 L0.71 114.51" stroke="none" stroke-width="0" fill="#ffffff"></path><path d="M-1.6 -1.77 C37.4 1.04, 79.62 -0.28, 169.63 0.1 M0.26 0.3 C40.31 0.26, 81.39 1, 169 0.26 M169.68 0.08 C168.18 42.86, 167.32 82.94, 168.88 114.78 M168.34 0.11 C169.3 30.19, 168.51 62.13, 169.93 115.21 M169.45 115.55 C121.55 117.57, 74.68 115, -0.93 114.66 M168.47 115.02 C115.52 114.6, 61.48 115.49, 0.23 114.49 M-1.33 112.33 C-1.63 70.74, 0.39 26.64, -0.7 -1.11 M0.48 115.01 C1.64 85.38, 0.05 55.19, -0.84 -0.37" stroke="#000000" stroke-width="1" fill="none"></path></g><g transform="translate(584.1634338094836 645.58984375) rotate(0 79.5 12.5)"><text x="79.5" y="18" font-family="Virgil, Segoe UI Emoji" font-size="20px" fill="#000000" text-anchor="middle" style="white-space: pre;" direction="ltr">OXTP DB</text></g><g stroke-linecap="round" transform="translate(292.66015625 611.0859375) rotate(0 84.546875 57.130859375)"><path d="M1.66 0.01 C59.59 1.63, 119.47 2.84, 167.27 -0.54 M-0.73 -0.02 C61.06 0.74, 120.43 1.23, 168.95 0.18 M170.93 -1.6 C169 40.05, 170.66 80.12, 169.15 115.34 M168.53 0.47 C168.05 37.21, 168.33 75.21, 168.83 113.33 M170.15 113.62 C121.93 117.25, 76.42 116.78, 0.1 113.91 M168.87 114.83 C121.63 115.27, 72.04 114.74, 0.84 113.62 M0.43 113.43 C-1.24 87.9, -1.58 58.55, -1.41 -1.81 M0.99 113.3 C-0.45 76.61, 0.1 39.8, 0.03 0.44" stroke="#000000" stroke-width="1" fill="none"></path></g><g stroke-linecap="round" transform="translate(284.1640625 600.958984375) rotate(0 84.546875 57.130859375)"><path d="M1.27 0.46 L169.19 0.77 L168.6 113 L1.54 112.41" stroke="none" stroke-width="0" fill="#ffffff"></path><path d="M0.01 -0.23 C42.97 -1.56, 86.95 -3.22, 168.55 1.17 M-0.02 0.48 C36 0.49, 72.23 1.08, 169.27 0.53 M167.49 0.02 C167.73 34.85, 167.43 66.4, 170.17 114.78 M169.56 -0.71 C169.48 30.55, 170.22 61.69, 168.17 114.04 M168.45 113.99 C135.31 116.28, 99.17 115.25, -0.36 113.98 M169.66 115.14 C133.34 113.5, 97.24 114.73, -0.64 113.68 M-0.83 113.1 C1.71 77.66, 0.02 42.65, -1.81 0.54 M-0.96 113.85 C-0.41 79.7, 0.15 44.89, 0.44 -0.86" stroke="#000000" stroke-width="1" fill="none"></path></g><g transform="translate(289.1640625 620.58984375) rotate(0 79.5 37.5)"><text x="79.5" y="18" font-family="Virgil, Segoe UI Emoji" font-size="20px" fill="#000000" text-anchor="middle" style="white-space: pre;" direction="ltr">Internal </text><text x="79.5" y="43" font-family="Virgil, Segoe UI Emoji" font-size="20px" fill="#000000" text-anchor="middle" style="white-space: pre;" direction="ltr">reporting </text><text x="79.5" y="68" font-family="Virgil, Segoe UI Emoji" font-size="20px" fill="#000000" text-anchor="middle" style="white-space: pre;" direction="ltr">servers</text></g><g stroke-linecap="round" transform="translate(51.84375 781.8868483071483) rotate(0 207.296875 159.3515625)"><path d="M1 0.73 L413.2 -0.06 L412.64 319.33 L1.53 318.26" stroke="none" stroke-width="0" fill="#ffffff"></path><path d="M0.19 -0.51 C98.15 0.58, 194.45 1.06, 414.32 0.05 M-0.15 0.19 C134.33 0.15, 268.7 -0.27, 414.39 0.34 M415.9 -0.51 C415.88 64.52, 416.3 128.57, 415.7 318.72 M414.31 0 C416.34 118.55, 416.15 236.24, 414.6 318.15 M414.86 319.4 C294.84 317.93, 174.08 319.74, 0.74 318.37 M414.11 318.62 C298.1 316.91, 182.26 316.63, 0.04 318.52 M0.64 319.97 C-2.02 192.56, -0.98 68.33, -0.46 -0.01 M0.54 318.77 C-1.64 245.71, -1.93 172.59, 0.44 -0.56" stroke="#000000" stroke-width="1" fill="none"></path></g><g transform="translate(80.23046875 803.1524733071483) rotate(0 52 12.5)"><text x="0" y="18" font-family="Virgil, Segoe UI Emoji" font-size="20px" fill="#000000" text-anchor="start" style="white-space: pre;" direction="ltr">Oracle DB</text></g><g stroke-linecap="round" transform="translate(279.4765625 954.9552076821483) rotate(0 84.546875 57.130859375)"><path d="M-0.59 1.37 C34.5 0.84, 72.45 2.15, 170.13 0.41 M-0.93 0.84 C60.49 -0.51, 121.57 -0.47, 169.98 -0.66 M168.91 -1.64 C168.63 38.55, 166.86 76.44, 167.59 113.38 M168.69 0.71 C168.24 29.15, 168.81 60.91, 169.16 113.88 M167.76 112.35 C104.49 113.73, 41.07 114.09, 1.43 113.71 M168.75 113.82 C133.26 112.64, 99.3 113.26, 0.44 114.34 M1.6 115.57 C2.28 85.76, 1.56 60.1, -0.57 -1.26 M0.04 113.91 C-0.3 82.14, -0.83 49.4, 0.81 0.92" stroke="#000000" stroke-width="1" fill="none"></path></g><g stroke-linecap="round" transform="translate(270.98046875 944.8282545571483) rotate(0 84.546875 57.130859375)"><path d="M0.25 0.3 L169.19 -0.29 L167.17 116.26 L-1.63 114.57" stroke="none" stroke-width="0" fill="#ffffff"></path><path d="M1.37 -1.72 C47.08 0.5, 94.8 1.54, 169.5 1.19 M0.84 -0.31 C50.9 1.53, 101.99 2.45, 168.43 0.36 M167.45 -0.1 C169.69 28.73, 169.16 59.69, 168.21 113.53 M169.81 0.23 C168.04 24.24, 169.7 46.95, 168.72 115.03 M167.18 113.39 C112.74 112.57, 56.87 114.57, -0.55 112.43 M168.65 113.7 C110.15 114.42, 52.39 114.12, 0.08 113.7 M1.3 115.71 C-0.4 89.06, 1.78 61.83, -1.26 -0.29 M-0.35 114.59 C0.12 73.43, 0.02 33.79, 0.92 0.73" stroke="#000000" stroke-width="1" fill="none"></path></g><g transform="translate(275.98046875 976.9591139321483) rotate(0 79.5 25)"><text x="79.5" y="18" font-family="Virgil, Segoe UI Emoji" font-size="20px" fill="#000000" text-anchor="middle" style="white-space: pre;" direction="ltr">Single tenant </text><text x="79.5" y="43" font-family="Virgil, Segoe UI Emoji" font-size="20px" fill="#000000" text-anchor="middle" style="white-space: pre;" direction="ltr">hardware</text></g><g stroke-linecap="round" transform="translate(81.58984375 954.9552076821483) rotate(0 84.546875 57.130859375)"><path d="M-1.35 0 C54.41 0.02, 112.35 1.54, 169.53 1.28 M0.6 0.77 C44.25 1.35, 88.48 0.68, 169.23 0.75 M167.98 0.77 C169.93 35.93, 167.26 67.92, 169.86 113.39 M168.8 -0.55 C169.02 24.83, 168.73 50.54, 168.86 115.15 M167.73 114.25 C116.3 114.45, 57.93 113.91, -1.13 115.51 M169.33 115.19 C124.94 114.24, 80.31 115.02, 0.9 115.05 M2 113.3 C1.3 85.44, 0.99 55.92, 0.64 -0.87 M0.23 114.33 C0.84 91.07, 1.58 67.71, -0.58 -0.73" stroke="#000000" stroke-width="1" fill="none"></path></g><g stroke-linecap="round" transform="translate(73.09375 944.8282545571483) rotate(0 84.546875 57.130859375)"><path d="M0.23 0.5 L170.79 -1.68 L167.17 114.11 L0.08 114.16" stroke="none" stroke-width="0" fill="#ffffff"></path><path d="M0 -1.96 C65.3 0.75, 133.22 1.58, 170.37 -0.73 M0.77 -0.34 C57.04 -1.71, 113.12 -0.88, 169.84 0.04 M169.86 0.77 C169.79 33.02, 167.03 70.59, 168.23 112.65 M168.55 0.28 C169.13 30.68, 169.75 61.13, 169.98 114.49 M169.08 116.12 C112.14 111.25, 54.8 111.98, 1.25 113.51 M170.02 114.5 C127.78 114.66, 87.65 115.55, 0.79 113.75 M-0.96 115.34 C-1.51 82.91, -2.61 50.64, -0.87 -1.89 M0.07 114.08 C-0.1 90.84, 0.03 65.74, -0.73 -0.92" stroke="#000000" stroke-width="1" fill="none"></path></g><g transform="translate(78.09375 976.9591139321483) rotate(0 79.5 25)"><text x="79.5" y="18" font-family="Virgil, Segoe UI Emoji" font-size="20px" fill="#000000" text-anchor="middle" style="white-space: pre;" direction="ltr">Multi tenant </text><text x="79.5" y="43" font-family="Virgil, Segoe UI Emoji" font-size="20px" fill="#000000" text-anchor="middle" style="white-space: pre;" direction="ltr">hardware</text></g><g stroke-linecap="round" transform="translate(10 349.103515625) rotate(0 266.814453125 114.93359375)"><path d="M-1.83 0.44 L532.26 1.18 L534.84 229.69 L-0.52 231.59" stroke="none" stroke-width="0" fill="#ffffff"></path><path d="M-0.58 0.11 C187.46 -1.89, 374.71 -2.22, 533.67 -0.57 M-0.14 -0.35 C123.44 -0.04, 247.5 0.46, 533.26 -0.11 M535.29 -1.17 C535.55 78.2, 536.96 157.64, 532.02 230.31 M533.45 -0.42 C531.16 76.43, 532 153.04, 534.34 229.2 M533.42 230.27 C344.59 228.37, 155.77 227.08, -0.26 229.71 M533.69 229.48 C341.1 228.44, 149.04 228.37, 0.02 229.68 M0.32 229.11 C2.04 166.25, 1.14 101.13, -0.01 0.18 M0.59 229.6 C-0.2 173.09, -0.15 115.53, -0.22 0.07" stroke="#000000" stroke-width="1" fill="none"></path></g><g stroke-linecap="round" transform="translate(570.5234375 347.744140625) rotate(0 271.25390625 114.93359375)"><path d="M-1.83 -2 L541.62 1.97 L540.6 230.62 L-1.76 229.09" stroke="none" stroke-width="0" fill="#ffffff"></path><path d="M0.58 0.27 C188.07 2.16, 375.36 2.15, 542.45 -0.74 M-0.04 -0.03 C122.04 1.67, 244.64 2.39, 542.85 0.02 M542.4 -0.4 C542.18 81.88, 542.3 166.24, 541.65 229.22 M542.94 -0.19 C540.06 89.87, 540.82 178.87, 543.07 229.76 M542.35 229.23 C432.54 228.07, 321.43 227.48, 0.39 229.2 M542.13 230.01 C425.71 228.49, 308.59 228.19, -0.33 229.63 M-1.46 231.07 C-0.87 155.08, 0.03 83.2, 0.43 0.1 M0.29 229.86 C-1.14 154.98, -0.6 79.9, 0.11 -0.42" stroke="#000000" stroke-width="1" fill="none"></path></g><g transform="translate(42.00390625 372.279296875) rotate(0 89.5 12.5)"><text x="0" y="18" font-family="Virgil, Segoe UI Emoji" font-size="20px" fill="#000000" text-anchor="start" style="white-space: pre;" direction="ltr">Citrix App Servers</text></g><g stroke-linecap="round" transform="translate(50.03515625 442.7265625) rotate(0 84.546875 57.130859375)"><path d="M-0.5 1.91 C46.53 0.16, 91.3 1.01, 167.67 1.26 M0.11 -0.53 C67.01 -1.58, 134.36 -0.33, 169.62 -0.52 M168.51 0.9 C169.64 29.02, 170.74 59.28, 168.06 115.46 M169.93 -0.89 C168.71 43.27, 168.56 84.09, 169.42 114.17 M170.99 113.68 C116.55 115.09, 62.6 115.07, -1.95 112.31 M169.82 113.38 C116.54 114.05, 62.76 113.38, -0.15 115.26 M1.07 115.03 C0.49 79.63, -0.22 42.14, 1.12 1.84 M-0.03 115.03 C0.03 73.46, 0.55 32.17, -0.57 0.65" stroke="#000000" stroke-width="1" fill="none"></path></g><g stroke-linecap="round" transform="translate(41.5390625 432.599609375) rotate(0 84.546875 57.130859375)"><path d="M-0.44 1.75 L167.15 -1.13 L171 115.64 L0.17 112.31" stroke="none" stroke-width="0" fill="#ffffff"></path><path d="M1.91 1.68 C65.43 2.02, 130.68 -1, 170.36 1.98 M-0.53 -0.44 C51.22 -0.71, 104.09 0.35, 168.57 -0.46 M169.99 0.26 C169.99 38.52, 171.23 73.28, 170.29 115.7 M168.2 -0.11 C170.7 31.28, 169 63.4, 169 114.42 M168.51 115.09 C104.64 116.12, 40.49 113.92, -1.95 114.53 M168.21 114.74 C106.07 115.23, 42.03 115.34, 1 114.43 M0.77 114.59 C2.12 81.26, 0.78 50.13, 1.84 1.27 M0.77 113.44 C1.33 88.14, 1.55 62.03, 0.65 0.73" stroke="#000000" stroke-width="1" fill="none"></path></g><g transform="translate(46.5390625 464.73046875) rotate(0 79.5 25)"><text x="79.5" y="18" font-family="Virgil, Segoe UI Emoji" font-size="20px" fill="#000000" text-anchor="middle" style="white-space: pre;" direction="ltr">DevOps admin </text><text x="79.5" y="43" font-family="Virgil, Segoe UI Emoji" font-size="20px" fill="#000000" text-anchor="middle" style="white-space: pre;" direction="ltr">servers</text></g><g stroke-linecap="round" transform="translate(325.8984375 420.7109375) rotate(0 84.546875 57.130859375)"><path d="M-1.94 1.77 C69.09 1.92, 134.38 2.16, 167.74 0.48 M-0.68 0.56 C42.48 0.27, 83.76 1.31, 169.76 -0.41 M168.28 0.94 C169.94 43.79, 167.79 86.51, 168.95 112.55 M169.18 0.5 C168.09 41.51, 167.91 82.09, 168.83 115.1 M168.78 114.61 C110.76 113.03, 48.75 115.47, 1.84 113.09 M169.92 114.53 C103.77 114, 39.22 112.59, 0.25 114.56 M0.57 113.64 C0.33 70.51, 0.96 28.94, 1.58 -1.91 M-0.35 114.06 C1.22 69.76, -0.48 27.12, 0.32 -0.16" stroke="#000000" stroke-width="1" fill="none"></path></g><g stroke-linecap="round" transform="translate(335.8984375 430.7109375) rotate(0 84.546875 57.130859375)"><path d="M1.77 1.47 C68.05 0.78, 134.87 0.29, 169.57 -1.08 M0.56 0.85 C56.47 1.64, 114.49 1.81, 168.69 0.73 M170.03 1.11 C170.37 30.57, 170.41 63.06, 167.38 115.43 M169.6 -0.3 C170.44 26.84, 170.05 54.38, 169.94 114.79 M169.45 115.67 C104.74 113.14, 44.37 115.83, -1.17 115.94 M169.36 113.86 C131.18 115.63, 91.19 115.91, 0.29 115.04 M-0.62 113.51 C0.56 90.71, 2.21 69, -1.91 1.63 M-0.2 115.13 C0.07 82.68, 1.04 53.09, -0.16 -0.84" stroke="#000000" stroke-width="1" fill="none"></path></g><g stroke-linecap="round" transform="translate(345.8984375 440.7109375) rotate(0 84.546875 57.130859375)"><path d="M1.47 1.47 C45.36 0.21, 91.09 -1.02, 168.02 0.74 M0.85 -0.52 C43.29 -0.43, 86.25 -1.35, 169.83 -0.23 M170.21 1.11 C167.59 37.04, 168.48 70.06, 170.27 113.04 M168.79 0.54 C168.71 42.54, 168.92 85.62, 169.63 114.98 M170.51 112.7 C114.24 115.44, 62.93 113.39, 1.68 112.83 M168.69 114.94 C127.73 113.98, 86.68 115.01, 0.78 113.31 M-0.76 113.73 C-0.46 92.1, 1.25 65.81, 1.63 -0.62 M0.87 113.36 C-0.44 89.79, 0.72 65.02, -0.84 0.08" stroke="#000000" stroke-width="1" fill="none"></path></g><g stroke-linecap="round" transform="translate(315.8984375 410.828125) rotate(0 84.546875 57.130859375)"><path d="M0.71 0.36 L170.28 -1.67 L169.97 115.63 L-0.63 114.83" stroke="none" stroke-width="0" fill="#ffffff"></path><path d="M1.47 -0.86 C36.06 -2.6, 69.17 -2.32, 169.83 -0.94 M-0.52 0.49 C39.75 -0.77, 78.06 -0.7, 168.86 0.14 M170.21 -1.03 C170.78 29.46, 167.92 60.38, 167.88 115.68 M169.63 -0.48 C169.82 34.97, 170.51 71, 169.81 114.46 M167.54 113.4 C121.88 117.29, 71.73 117.13, -1.44 113.15 M169.77 114.23 C103.61 113.83, 39.88 114.36, -0.95 113.3 M-0.54 114.13 C1.46 78.27, -1.55 40.77, -0.62 -1.7 M-0.9 113.43 C0.29 84.29, 0.06 52.85, 0.08 -0.3" stroke="#000000" stroke-width="1" fill="none"></path></g><g transform="translate(320.8984375 417.958984375) rotate(0 79.5 50)"><text x="79.5" y="18" font-family="Virgil, Segoe UI Emoji" font-size="20px" fill="#000000" text-anchor="middle" style="white-space: pre;" direction="ltr">App Servers</text><text x="79.5" y="43" font-family="Virgil, Segoe UI Emoji" font-size="20px" fill="#000000" text-anchor="middle" style="white-space: pre;" direction="ltr">OTP</text><text x="79.5" y="68" font-family="Virgil, Segoe UI Emoji" font-size="20px" fill="#000000" text-anchor="middle" style="white-space: pre;" direction="ltr">User Admin tool</text><text x="79.5" y="93" font-family="Virgil, Segoe UI Emoji" font-size="20px" fill="#000000" text-anchor="middle" style="white-space: pre;" direction="ltr">OXTP</text></g><g transform="translate(589.1015625 362.525390625) rotate(0 140.5 12.5)"><text x="0" y="18" font-family="Virgil, Segoe UI Emoji" font-size="20px" fill="#000000" text-anchor="start" style="white-space: pre;" direction="ltr">Reporting Framework Servers</text></g><g stroke-linecap="round" transform="translate(587.42578125 463.306640625) rotate(0 51.5 41.5)"><path d="M-0.99 -1.35 L104.92 -1.67 L103.56 83.22 L-0.6 82.07" stroke="none" stroke-width="0" fill="#ffffff"></path><path d="M-1.48 -0.11 C25.68 -0.9, 51.92 0.79, 101.32 1.23 M0.97 -0.5 C36.83 1.81, 76.49 -0.08, 103.3 -0.26 M103.04 -1.57 C102.37 19.65, 104.84 38.4, 101.01 81.3 M102.49 -0.35 C102.75 22.79, 102.66 45.02, 103.55 83.85 M102.21 83.48 C75.31 85.35, 44.69 85.58, -1.77 84.63 M102.42 83.99 C70.5 84.1, 37.38 83.45, 0.57 82.77 M-0.85 82.03 C1.9 52.77, 0.85 27.76, -0.44 -0.67 M0.43 83.03 C0.12 53.12, -1.08 22.62, -0.73 -0.3" stroke="#000000" stroke-width="1" fill="none"></path></g><g stroke-linecap="round" transform="translate(706.1744791666667 463.306640625) rotate(0 60 42.5)"><path d="M-0.86 -0.48 L120.06 -0.25 L120.02 86.41 L1.19 83.58" stroke="none" stroke-width="0" fill="#ffffff"></path><path d="M-1.15 1.14 C39.6 2.04, 84.65 -0.13, 118.14 1.54 M-0.94 0.76 C44.03 -1.3, 88.55 -0.26, 119.16 0.48 M118.55 1.99 C119.69 23.13, 119.75 46.97, 120 86.3 M119.64 -0.87 C120.55 19.49, 120.4 37.6, 120.18 84.44 M121.35 85.71 C92.77 82.91, 62.03 84.22, 0.59 86.92 M120.78 84.28 C76.36 84.19, 33.54 85.57, -0.26 84.46 M-1.45 84.52 C0.8 69.01, -1.07 48.96, -0.35 -0.89 M-0.25 85.31 C-0.12 56.35, 0.44 27.91, 0.64 0.91" stroke="#000000" stroke-width="1" fill="none"></path></g><g stroke-linecap="round" transform="translate(841.9231770833335 463.306640625) rotate(0 60 42.5)"><path d="M0.71 0.86 L120.55 1.29 L118.81 83.58 L0.46 83.15" stroke="none" stroke-width="0" fill="#ffffff"></path><path d="M-1.83 -0.63 C32.79 -0.68, 65.57 1.66, 118.1 -1.4 M-0.69 -0.78 C33.73 -0.71, 68.33 -1.6, 120.13 -0.81 M118.6 0.22 C121.69 29.32, 118.32 61.07, 121.06 85.36 M119.38 0.41 C120.39 23.61, 120.57 48.2, 119.56 84.44 M121.95 84.34 C81.72 83.72, 41.12 84.38, -1.82 83.43 M120.1 85.01 C76.76 83.81, 34.55 84.69, -0.73 84.43 M1.06 84.06 C-0.85 64.82, -0.06 45.78, -1.05 0.35 M-0.08 85.13 C0.88 62, -0.42 37.74, -0.89 0.68" stroke="#000000" stroke-width="1" fill="none"></path></g><g stroke-linecap="round" transform="translate(977.6718750000002 463.306640625) rotate(0 60 42.5)"><path d="M1.87 -0.18 L121.48 0.57 L121.29 84.48 L1.93 84.38" stroke="none" stroke-width="0" fill="#ffffff"></path><path d="M1.51 0.84 C28.93 1.53, 57.49 0.95, 118.79 0.91 M0.66 0.04 C30.58 0.47, 61.17 0.02, 120.02 -0.23 M121.05 0.4 C117.77 17.58, 119.67 34.98, 119.39 87 M119.37 -0.35 C118.65 17.73, 120.12 36.07, 120.4 84.62 M121.27 83.19 C85.48 85.98, 50.15 84.06, -1.08 84.79 M119.36 84.32 C89.81 83.91, 57.9 85, 0.47 85.8 M-1.71 86.54 C1.24 64.84, -1.13 42.3, 1.45 1.26 M0.91 84.52 C-0.66 61.56, -0.07 37.55, -0.95 -0.33" stroke="#000000" stroke-width="1" fill="none"></path></g><g transform="translate(592.42578125 479.806640625) rotate(0 46.5 25)"><text x="46.5" y="18" font-family="Virgil, Segoe UI Emoji" font-size="20px" fill="#000000" text-anchor="middle" style="white-space: pre;" direction="ltr">OXTP </text><text x="46.5" y="43" font-family="Virgil, Segoe UI Emoji" font-size="20px" fill="#000000" text-anchor="middle" style="white-space: pre;" direction="ltr">reporting</text></g><g transform="translate(711.1744791666667 468.306640625) rotate(0 55 37.5)"><text x="55" y="18" font-family="Virgil, Segoe UI Emoji" font-size="20px" fill="#000000" text-anchor="middle" style="white-space: pre;" direction="ltr">OTP </text><text x="55" y="43" font-family="Virgil, Segoe UI Emoji" font-size="20px" fill="#000000" text-anchor="middle" style="white-space: pre;" direction="ltr">Reporting </text><text x="55" y="68" font-family="Virgil, Segoe UI Emoji" font-size="20px" fill="#000000" text-anchor="middle" style="white-space: pre;" direction="ltr">Framework</text></g><g transform="translate(846.9231770833335 468.306640625) rotate(0 55 37.5)"><text x="55" y="18" font-family="Virgil, Segoe UI Emoji" font-size="20px" fill="#000000" text-anchor="middle" style="white-space: pre;" direction="ltr">OTP </text><text x="55" y="43" font-family="Virgil, Segoe UI Emoji" font-size="20px" fill="#000000" text-anchor="middle" style="white-space: pre;" direction="ltr">Batch </text><text x="55" y="68" font-family="Virgil, Segoe UI Emoji" font-size="20px" fill="#000000" text-anchor="middle" style="white-space: pre;" direction="ltr">Reporting</text></g><g transform="translate(982.6718750000002 468.306640625) rotate(0 55 37.5)"><text x="55" y="18" font-family="Virgil, Segoe UI Emoji" font-size="20px" fill="#000000" text-anchor="middle" style="white-space: pre;" direction="ltr">OTP </text><text x="55" y="43" font-family="Virgil, Segoe UI Emoji" font-size="20px" fill="#000000" text-anchor="middle" style="white-space: pre;" direction="ltr">static </text><text x="55" y="68" font-family="Virgil, Segoe UI Emoji" font-size="20px" fill="#000000" text-anchor="middle" style="white-space: pre;" direction="ltr">content</text></g><g stroke-linecap="round"><g transform="translate(1189.9782449596332 405.21119155989084) rotate(0 -156.56295648757452 26.425331257672383)"><path d="M0.14 0.36 C-46.11 0.49, -225.98 -8.37, -278.02 1.11 C-330.06 10.59, -306.32 47.6, -312.1 57.23 M-1.24 -0.5 C-47.55 -0.76, -226.73 -10.54, -278.65 -0.8 C-330.57 8.93, -307.11 48.37, -312.77 57.93" stroke="#000000" stroke-width="1" fill="none"></path></g><g transform="translate(1189.9782449596332 405.21119155989084) rotate(0 -156.56295648757452 26.425331257672383)"><path d="M-322.33 30.72 C-319.59 37.23, -319.58 43.52, -311.97 56.06 M-323.21 28.82 C-320 36.03, -318.88 42.07, -313.29 57.13" stroke="#000000" stroke-width="1" fill="none"></path></g><g transform="translate(1189.9782449596332 405.21119155989084) rotate(0 -156.56295648757452 26.425331257672383)"><path d="M-301.81 30.8 C-304.33 37.31, -309.6 43.58, -311.97 56.06 M-302.69 28.89 C-303.97 35.95, -307.35 41.96, -313.29 57.13" stroke="#000000" stroke-width="1" fill="none"></path></g></g><g stroke-linecap="round"><g transform="translate(486.9800711149219 475.40876395952864) rotate(0 139.11603643469778 -29.969896511676893)"><path d="M0.06 -0.57 C36.73 -10.65, 174.32 -58.12, 220.91 -60.16 C267.5 -62.2, 269.91 -20.83, 279.6 -12.81 M-1.37 1.75 C35.09 -8.67, 173.42 -59.46, 220.15 -61.69 C266.87 -63.92, 269.15 -19.5, 278.98 -11.62" stroke="#000000" stroke-width="1" fill="none"></path></g><g transform="translate(486.9800711149219 475.40876395952864) rotate(0 139.11603643469778 -29.969896511676893)"><path d="M255.34 -30.64 C266.72 -23.44, 272.97 -17.01, 279.82 -10.8 M256.62 -31.85 C263.7 -25.24, 270.69 -18.14, 279.45 -12.14" stroke="#000000" stroke-width="1" fill="none"></path></g><g transform="translate(486.9800711149219 475.40876395952864) rotate(0 139.11603643469778 -29.969896511676893)"><path d="M273.26 -40.64 C277.96 -29.68, 277.49 -19.51, 279.82 -10.8 M274.54 -41.85 C276.07 -32.02, 277.45 -21.79, 279.45 -12.14" stroke="#000000" stroke-width="1" fill="none"></path></g></g><g stroke-linecap="round"><g transform="translate(487.89867840053375 452.10809046274403) rotate(0 187.79796917048122 -14.853426792885557)"><path d="M0.42 -0.22 C56.16 -7.07, 272.89 -42.13, 335.38 -40.18 C397.86 -38.22, 368.73 2.61, 375.33 11.54 M-0.82 -1.39 C54.67 -8.69, 271.84 -44.4, 334.4 -42.1 C396.96 -39.8, 367.77 3.5, 374.55 12.39" stroke="#000000" stroke-width="1" fill="none"></path></g><g transform="translate(487.89867840053375 452.10809046274403) rotate(0 187.79796917048122 -14.853426792885557)"><path d="M364.22 -15.99 C369.22 -5.25, 370.91 4.95, 376.1 13.39 M365.32 -15.97 C367.06 -5.96, 370.87 3.14, 375.41 12.45" stroke="#000000" stroke-width="1" fill="none"></path></g><g transform="translate(487.89867840053375 452.10809046274403) rotate(0 187.79796917048122 -14.853426792885557)"><path d="M384.74 -15.77 C381.94 -5.04, 375.83 5.08, 376.1 13.39 M385.84 -15.75 C380.46 -5.63, 377.14 3.39, 375.41 12.45" stroke="#000000" stroke-width="1" fill="none"></path></g></g><g stroke-linecap="round"><g transform="translate(487.55519915460945 430.1413945024568) rotate(0 298.2887677165562 10.434687292996557)"><path d="M-0.24 0.4 C89.51 -2, 440.72 -20.36, 538.86 -14.56 C637.01 -8.76, 580.3 26.85, 588.62 35.19 M-1.83 -0.43 C88.29 -2.62, 442.91 -19.16, 541.2 -13.01 C639.49 -6.85, 579.89 28.19, 587.89 36.48" stroke="#000000" stroke-width="1" fill="none"></path></g><g transform="translate(487.55519915460945 430.1413945024568) rotate(0 298.2887677165562 10.434687292996557)"><path d="M588.9 5.3 C588.13 16.44, 587.88 26.58, 588.29 36.27 M587.8 6.86 C588.56 13.99, 587.86 20.26, 588 35.76" stroke="#000000" stroke-width="1" fill="none"></path></g><g transform="translate(487.55519915460945 430.1413945024568) rotate(0 298.2887677165562 10.434687292996557)"><path d="M608.1 12.53 C601.04 21.26, 594.49 29.03, 588.29 36.27 M607.01 14.09 C603.3 19.7, 598.11 24.28, 588 35.76" stroke="#000000" stroke-width="1" fill="none"></path></g></g><g stroke-linecap="round"><g transform="translate(1298.7253717972153 126.66549889400886) rotate(0 3.7558313269398695 110.19418723406153)"><path d="M-0.62 0.98 C0.65 37.71, 6.58 183.77, 8.14 219.94 M1.25 0.45 C2.35 36.91, 6.17 181.99, 7.36 218.39" stroke="#000000" stroke-width="1" fill="none"></path></g><g transform="translate(1298.7253717972153 126.66549889400886) rotate(0 3.7558313269398695 110.19418723406153)"><path d="M-2.08 191.06 C1.8 201.6, 2.33 209.52, 6.09 219.17 M-3.29 190.59 C0.71 201.75, 4.65 210.99, 6.43 217.63" stroke="#000000" stroke-width="1" fill="none"></path></g><g transform="translate(1298.7253717972153 126.66549889400886) rotate(0 3.7558313269398695 110.19418723406153)"><path d="M18.43 190.47 C15.28 201.1, 8.79 209.22, 6.09 219.17 M17.23 189.99 C13.54 201.42, 9.8 210.89, 6.43 217.63" stroke="#000000" stroke-width="1" fill="none"></path></g></g><g stroke-linecap="round"><g transform="translate(843.551467831744 125.68298849287606) rotate(0 -0.35708619973900113 110.34758159502479)"><path d="M-0.47 -0.25 C-0.84 36.67, -2.06 183.96, -2.19 220.64 M1.48 -1.43 C1.51 35.77, 0.76 185.1, 0.21 222.13" stroke="#000000" stroke-width="1" fill="none"></path></g><g transform="translate(843.551467831744 125.68298849287606) rotate(0 -0.35708619973900113 110.34758159502479)"><path d="M-10.22 192.85 C-7.17 202.99, -5.44 210.91, -0.49 222.4 M-10.63 193.42 C-6.5 202.47, -1.84 213.98, 0.73 222.5" stroke="#000000" stroke-width="1" fill="none"></path></g><g transform="translate(843.551467831744 125.68298849287606) rotate(0 -0.35708619973900113 110.34758159502479)"><path d="M10.3 193.04 C7.17 203.04, 2.71 210.9, -0.49 222.4 M9.89 193.6 C7.03 202.76, 4.7 214.2, 0.73 222.5" stroke="#000000" stroke-width="1" fill="none"></path></g></g><g stroke-linecap="round"><g transform="translate(282.2105253178445 125.41938814135261) rotate(0 0.43111136708773756 27.825464306101452)"><path d="M-0.13 0.06 C0.34 9.62, 2.24 47.42, 2.52 56.6 M-1.65 -0.95 C-1.31 8.32, 0.72 45.31, 1.68 54.82" stroke="#000000" stroke-width="1" fill="none"></path></g><g transform="translate(282.2105253178445 125.41938814135261) rotate(0 0.43111136708773756 27.825464306101452)"><path d="M-9.72 29.62 C-5.72 35.14, -4.91 43.74, 1.04 52.85 M-10.82 28.47 C-5.47 39.27, -0.99 48.58, 1.52 54.13" stroke="#000000" stroke-width="1" fill="none"></path></g><g transform="translate(282.2105253178445 125.41938814135261) rotate(0 0.43111136708773756 27.825464306101452)"><path d="M9.39 28.21 C8.07 34.1, 3.56 43.09, 1.04 52.85 M8.29 27.06 C6.2 38.56, 3.25 48.42, 1.52 54.13" stroke="#000000" stroke-width="1" fill="none"></path></g></g><g stroke-linecap="round"><g transform="translate(279.0073816523626 291.0083362347176) rotate(0 0.037832084102547014 28.325637530729182)"><path d="M-0.84 -0.68 C-0.85 8.58, 0.43 46.71, 0.7 56.12 M0.92 1.58 C0.74 10.93, 0.2 48.15, 0.12 57.33" stroke="#000000" stroke-width="1" fill="none"></path></g><g transform="translate(279.0073816523626 291.0083362347176) rotate(0 0.037832084102547014 28.325637530729182)"><path d="M-10.39 31.71 C-6.77 41.64, -3.87 48.75, -0.3 58.47 M-9.07 30.47 C-5.21 40.03, -1.12 51.68, 1.07 58.08" stroke="#000000" stroke-width="1" fill="none"></path></g><g transform="translate(279.0073816523626 291.0083362347176) rotate(0 0.037832084102547014 28.325637530729182)"><path d="M9.02 31.95 C5.58 41.66, 1.44 48.68, -0.3 58.47 M10.34 30.71 C6.67 40.16, 3.23 51.71, 1.07 58.08" stroke="#000000" stroke-width="1" fill="none"></path></g></g><g stroke-linecap="round"><g transform="translate(260.25181724699746 580.824940900587) rotate(0 -19.31617754847889 29.00721356064355)"><path d="M1.04 -1.15 C-5.43 8.52, -32.44 49.48, -39.14 59.16 M0.12 0.86 C-6.4 10.73, -33.07 48.1, -39.67 57.57" stroke="#000000" stroke-width="1" fill="none"></path></g><g transform="translate(260.25181724699746 580.824940900587) rotate(0 -19.31617754847889 29.00721356064355)"><path d="M-33.72 29.94 C-31.99 37.86, -37.76 45.01, -37.72 55.64 M-31.16 29.29 C-35.53 38.13, -36.47 46.5, -40.6 57.5" stroke="#000000" stroke-width="1" fill="none"></path></g><g transform="translate(260.25181724699746 580.824940900587) rotate(0 -19.31617754847889 29.00721356064355)"><path d="M-16.95 41.77 C-19.87 46.63, -30.18 50.58, -37.72 55.64 M-14.39 41.12 C-24.09 46.28, -30.44 50.83, -40.6 57.5" stroke="#000000" stroke-width="1" fill="none"></path></g></g><g stroke-linecap="round"><g transform="translate(480.7175657938801 529.4468360218352) rotate(0 21.562515938119077 165.19291395945925)"><path d="M-0.96 -0.49 C7.33 50.17, 50.22 251.78, 49.41 304.99 C48.59 358.2, 3.48 316.5, -5.84 318.77 M0.74 -1.79 C8.99 49.5, 50.22 252.88, 49.05 305.97 C47.88 359.05, 2.94 314.41, -6.28 316.73" stroke="#000000" stroke-width="1" fill="none"></path></g><g transform="translate(480.7175657938801 529.4468360218352) rotate(0 21.562515938119077 165.19291395945925)"><path d="M20.91 320.03 C12.18 318.58, 7.14 317.07, -5.62 318.42 M22.32 317.28 C15.38 318.67, 8.65 317.33, -5.29 316.7" stroke="#000000" stroke-width="1" fill="none"></path></g><g transform="translate(480.7175657938801 529.4468360218352) rotate(0 21.562515938119077 165.19291395945925)"><path d="M13.44 337.7 C6.62 331.4, 3.66 325, -5.62 318.42 M14.84 334.94 C9.59 332.2, 4.63 326.7, -5.29 316.7" stroke="#000000" stroke-width="1" fill="none"></path></g></g><g stroke-linecap="round"><g transform="translate(887.2452230691154 580.6492073329047) rotate(0 -205.03984139152726 213.192704798004)"><path d="M-1.03 -0.81 C-32.46 65.21, -119.83 329.6, -187.96 396.18 C-256.1 462.75, -372.93 397.95, -409.83 398.66 M0.62 1.38 C-30.91 67.57, -119.76 331.12, -188.32 397.49 C-256.87 463.87, -373.92 399.47, -410.7 399.62" stroke="#000000" stroke-width="1" fill="none"></path></g><g transform="translate(887.2452230691154 580.6492073329047) rotate(0 -205.03984139152726 213.192704798004)"><path d="M-382.26 397.94 C-391.98 396.71, -402.74 398.69, -408.88 398.13 M-381.08 396.51 C-390.49 396.89, -398.96 398.42, -410.27 399.02" stroke="#000000" stroke-width="1" fill="none"></path></g><g transform="translate(887.2452230691154 580.6492073329047) rotate(0 -205.03984139152726 213.192704798004)"><path d="M-386.94 417.92 C-395.04 409.79, -404.17 404.81, -408.88 398.13 M-385.76 416.49 C-393.81 410.71, -400.84 406.09, -410.27 399.02" stroke="#000000" stroke-width="1" fill="none"></path></g></g><g stroke-linecap="round"><g transform="translate(1301.1217386292465 464.569197989307) rotate(0 -406.0217692553631 306.59378032426815)"><path d="M-0.55 0.12 C-14.68 95.96, 52.23 481.22, -83.64 574.97 C-219.51 668.73, -693.54 564.71, -815.76 562.64 M1.37 -0.86 C-12.96 94.6, 52.1 478.92, -84.19 573 C-220.48 667.09, -694.2 565.29, -816.37 563.67" stroke="#000000" stroke-width="1" fill="none"></path></g><g transform="translate(1301.1217386292465 464.569197989307) rotate(0 -406.0217692553631 306.59378032426815)"><path d="M-787.02 557.81 C-798.29 559.74, -811.23 560.52, -817.45 564.18 M-787.09 555.87 C-796.78 558.05, -806.06 561.83, -817.24 564.42" stroke="#000000" stroke-width="1" fill="none"></path></g><g transform="translate(1301.1217386292465 464.569197989307) rotate(0 -406.0217692553631 306.59378032426815)"><path d="M-789.27 578.21 C-799.64 572.07, -811.69 564.76, -817.45 564.18 M-789.34 576.27 C-798.32 572.07, -806.89 569.46, -817.24 564.42" stroke="#000000" stroke-width="1" fill="none"></path></g></g><g stroke-linecap="round"><g transform="translate(641.9451262529481 546.556895202539) rotate(0 11.456918287320036 27.72104804483604)"><path d="M-1.12 -0.66 C2.7 8.68, 19.8 46.8, 24.03 56.1 M0.49 1.61 C4.03 10.64, 19.06 45.43, 22.88 54.6" stroke="#000000" stroke-width="1" fill="none"></path></g><g transform="translate(641.9451262529481 546.556895202539) rotate(0 11.456918287320036 27.72104804483604)"><path d="M1.32 32.02 C12.4 41.23, 18.85 51.27, 22.75 53.86 M2.02 32.56 C10.4 40.35, 17.88 49.71, 23.33 53.98" stroke="#000000" stroke-width="1" fill="none"></path></g><g transform="translate(641.9451262529481 546.556895202539) rotate(0 11.456918287320036 27.72104804483604)"><path d="M20.2 24 C23.9 36.17, 22.94 49.35, 22.75 53.86 M20.91 24.54 C22.15 35.41, 22.51 47.8, 23.33 53.98" stroke="#000000" stroke-width="1" fill="none"></path></g></g><g stroke-linecap="round"><g transform="translate(487.59513860181005 510.1880345817434) rotate(0 54.59928072227956 46.39615466208994)"><path d="M0.64 -0.26 C18.88 15.06, 91.49 77.49, 109.68 92.98 M-0.48 -1.44 C17.56 14.56, 90.43 78.4, 108.68 94.24" stroke="#000000" stroke-width="1" fill="none"></path></g><g transform="translate(487.59513860181005 510.1880345817434) rotate(0 54.59928072227956 46.39615466208994)"><path d="M80.26 83.26 C88.87 86.77, 97.4 91.37, 107.29 94.04 M80.67 83.01 C91.09 87.78, 101.69 91.92, 107.89 95.22" stroke="#000000" stroke-width="1" fill="none"></path></g><g transform="translate(487.59513860181005 510.1880345817434) rotate(0 54.59928072227956 46.39615466208994)"><path d="M93.75 67.8 C98.17 76.34, 102.36 85.91, 107.29 94.04 M94.17 67.55 C99.39 78.25, 104.76 88.38, 107.89 95.22" stroke="#000000" stroke-width="1" fill="none"></path></g></g><g stroke-linecap="round"><g transform="translate(457.7603715430198 674.6267265957334) rotate(0 21.428420979985617 59.334726771971646)"><path d="M-0.92 0.51 C6.37 11.68, 41.13 47.5, 43.77 67.24 C46.42 86.98, 19.84 110.51, 14.93 118.94 M0.8 -0.27 C7.9 10.5, 40.38 45.73, 42.61 65.26 C44.84 84.79, 18.89 107.98, 14.17 116.89" stroke="#000000" stroke-width="1" fill="none"></path></g><g transform="translate(457.7603715430198 674.6267265957334) rotate(0 21.428420979985617 59.334726771971646)"><path d="M23.77 87.93 C20.8 97.1, 18.61 104.61, 13.27 118.71 M22.76 89.08 C20.99 96.27, 18.47 106.1, 14.3 117.01" stroke="#000000" stroke-width="1" fill="none"></path></g><g transform="translate(457.7603715430198 674.6267265957334) rotate(0 21.428420979985617 59.334726771971646)"><path d="M39.89 100.17 C32.05 105.53, 24.99 109.35, 13.27 118.71 M38.88 101.32 C32.19 104.79, 24.83 110.94, 14.3 117.01" stroke="#000000" stroke-width="1" fill="none"></path></g></g></svg>