<svg version="1.1" xmlns="http://www.w3.org/2000/svg" viewBox="0 0 824.9246720696215 702.5266085374615" width="1649.849344139243" height="1405.053217074923">
  <!-- svg-source:excalidraw -->
  
  <defs>
    <style>
      @font-face {
        font-family: "Virgil";
        src: url("https://excalidraw.com/Virgil.woff2");
      }
      @font-face {
        font-family: "Cascadia";
        src: url("https://excalidraw.com/Cascadia.woff2");
      }
    </style>
  </defs>
  <rect x="0" y="0" width="824.9246720696215" height="702.5266085374615" fill="#ffffff"></rect><g stroke-linecap="round" transform="translate(201.34375 20.8046875) rotate(0 84.546875 57.130859375)"><path d="M-1.49 -0.13 C42.21 -0.66, 82.85 2.06, 170.92 -0.92 M0.27 -0.77 C58.88 0.76, 118.06 2.09, 169 -0.08 M169.62 -0.3 C169.25 28.78, 167.91 60.14, 169.4 113.74 M168.59 -0.69 C169.52 42.9, 168.82 84.8, 168.56 113.42 M170.06 113.13 C113.42 113.57, 55.4 113.1, 1.12 113.89 M168.93 114.79 C105.58 114.14, 41.34 113.33, 0.78 114.09 M-0.07 115.25 C-1.46 70.97, -2.72 31.19, 0.64 -1.22 M-0.28 114.52 C0.81 81.68, 0.3 47.61, 0.86 0.51" stroke="#000000" stroke-width="1" fill="none"></path></g><g stroke-linecap="round" transform="translate(192.0703125 10) rotate(0 84.546875 57.130859375)"><path d="M-1.54 1.37 L169.76 -1.8 L167.29 112.94 L-0.31 114.72" stroke="none" stroke-width="0" fill="#ffffff"></path><path d="M-0.13 0.17 C34.95 0.03, 73.99 3.08, 168.18 1 M-0.77 -0.26 C40.54 -0.67, 83.06 -0.54, 169.01 -0.32 M168.79 0.83 C167.35 27.03, 168.12 55.4, 168.57 115.61 M168.4 0.36 C169.51 34.6, 169.44 69.35, 168.25 114.6 M167.96 115.06 C109.19 114.32, 49.06 116.19, -0.37 115.79 M169.62 114.38 C127.76 113.49, 85.81 114.77, -0.17 114.93 M0.99 113.64 C-0.52 69.76, 1.67 29.68, -1.22 -0.18 M0.26 114.18 C0.05 88.32, -0.79 64.4, 0.51 -0.68" stroke="#000000" stroke-width="1" fill="none"></path></g><g transform="translate(197.0703125 54.630859375) rotate(0 79.5 12.5)"><text x="79.5" y="18" font-family="Virgil, Segoe UI Emoji" font-size="20px" fill="#000000" text-anchor="middle" style="white-space: pre;" direction="ltr">F5 loadbalancer</text></g><g stroke-linecap="round" transform="translate(645.8309220696215 20.8046875) rotate(0 84.546875 57.130859375)"><path d="M-0.6 0.17 C46.01 0.93, 94.53 1.06, 168.02 0.69 M0.97 0.33 C65.21 0.79, 132.9 1.39, 169.2 0.98 M168.51 -1.94 C172.04 42.05, 168.5 87.25, 169.25 115.92 M170.01 0.6 C169.74 27.88, 168.88 56.79, 170.05 114.08 M170.44 116.16 C116.32 112.69, 59.24 111.89, 1.54 115.53 M168.67 113.49 C113.75 114.64, 58.98 114.93, -0.6 115 M-0.42 112.89 C1.1 84.55, 0.07 54.96, -1.98 1.85 M0.13 115.25 C1.66 69.05, 0.51 24.41, -0.89 -0.18" stroke="#000000" stroke-width="1" fill="none"></path></g><g stroke-linecap="round" transform="translate(636.5574845696215 10) rotate(0 84.546875 57.130859375)"><path d="M0.39 1.37 L171 1.48 L169.16 112.69 L-0.97 112.45" stroke="none" stroke-width="0" fill="#ffffff"></path><path d="M0.17 -0.76 C64.02 1.49, 126.75 -0.56, 169.78 1.82 M0.33 -0.91 C56.46 -0.98, 113.57 -1.52, 170.07 0.79 M167.16 1.96 C168.23 42.56, 170.17 88.44, 170.75 113.28 M169.69 0.61 C168.03 34.37, 168.25 70.19, 168.91 114.46 M170.99 115.61 C104.32 113.77, 39.01 116.94, 1.27 114.77 M168.33 113.99 C135.21 113.56, 101 112.93, 0.73 113.89 M-1.37 116 C-0.54 74.32, -0.15 31, 1.85 1.86 M0.99 115.01 C0.15 88.72, 0.42 63.09, -0.18 0.99" stroke="#000000" stroke-width="1" fill="none"></path></g><g transform="translate(641.5574845696215 54.630859375) rotate(0 79.5 12.5)"><text x="79.5" y="18" font-family="Virgil, Segoe UI Emoji" font-size="20px" fill="#000000" text-anchor="middle" style="white-space: pre;" direction="ltr">F5 loadbalancer</text></g><g stroke-linecap="round" transform="translate(27.13609005948365 477.0859375) rotate(0 84.546875 57.130859375)"><path d="M-1.32 -1.6 C50.7 -0.24, 104.87 3, 167.7 0.53 M-0.09 0.26 C51.9 1.32, 103.29 1.72, 169.94 -0.09 M170.79 0.58 C169.88 37.17, 171.33 73.62, 169.38 114.05 M169.43 -0.75 C168.86 37.97, 168.09 74.45, 169.52 115.09 M170.98 114.62 C103.53 113.53, 37.12 113.83, -0.85 113.33 M169.56 113.64 C115.75 114.75, 60.45 114.83, 0.44 114.49 M-1.31 112.94 C-2.95 75.79, -0.1 40.93, 1.27 -0.7 M-0.01 114.74 C1.2 86.91, 1.27 57.37, 0.32 -0.84" stroke="#000000" stroke-width="1" fill="none"></path></g><g stroke-linecap="round" transform="translate(18.63999630948365 466.958984375) rotate(0 84.546875 57.130859375)"><path d="M1.66 -1.11 L168.19 -0.16 L171.06 115.69 L0.71 114.51" stroke="none" stroke-width="0" fill="#ffffff"></path><path d="M-1.6 -1.77 C37.4 1.04, 79.62 -0.28, 169.63 0.1 M0.26 0.3 C40.31 0.26, 81.39 1, 169 0.26 M169.68 0.08 C168.18 42.86, 167.32 82.94, 168.88 114.78 M168.34 0.11 C169.3 30.19, 168.51 62.13, 169.93 115.21 M169.45 115.55 C121.55 117.57, 74.68 115, -0.93 114.66 M168.47 115.02 C115.52 114.6, 61.48 115.49, 0.23 114.49 M-1.33 112.33 C-1.63 70.74, 0.39 26.64, -0.7 -1.11 M0.48 115.01 C1.64 85.38, 0.05 55.19, -0.84 -0.37" stroke="#000000" stroke-width="1" fill="none"></path></g><g transform="translate(23.63999630948365 511.58984375) rotate(0 79.5 12.5)"><text x="79.5" y="18" font-family="Virgil, Segoe UI Emoji" font-size="20px" fill="#000000" text-anchor="middle" style="white-space: pre;" direction="ltr">MongoDB</text></g><g stroke-linecap="round" transform="translate(238.38716107728646 477.0859375) rotate(0 84.546875 57.130859375)"><path d="M-1.11 1.41 C67.78 1.88, 136.34 1.88, 170.19 0.59 M0.06 0.87 C35.62 -2, 69.88 -1.46, 168.92 0.14 M168.52 -0.74 C171.39 40.54, 169.9 85.13, 167.19 113.11 M168.72 -0.92 C168.26 23.33, 168.97 48.23, 169.5 114.61 M170.15 112.76 C111.64 113.34, 50.7 115.64, -0.58 114.82 M168.68 114.7 C132.53 112.78, 97.18 114, -0.58 113.61 M1.66 113.45 C-1.61 68.49, -1.67 25.43, -1.57 1.22 M-0.6 113.65 C0.4 89.02, -0.66 61.17, -0.15 0.38" stroke="#000000" stroke-width="1" fill="none"></path></g><g stroke-linecap="round" transform="translate(229.89106732728646 466.958984375) rotate(0 84.546875 57.130859375)"><path d="M1.03 1.86 L171.05 1.21 L169.86 116.2 L-0.56 115.51" stroke="none" stroke-width="0" fill="#ffffff"></path><path d="M1.41 0.19 C40.3 2.1, 79.72 2.03, 169.68 -1.85 M0.87 0.49 C45.69 -0.48, 92.61 -0.28, 169.23 0.65 M168.35 1.33 C166.99 43.79, 169.85 86.01, 167.94 112.47 M168.17 -0.05 C168.01 27.06, 168.84 53.21, 169.45 114.72 M167.59 115.3 C119.69 113.74, 73.74 114.57, 0.56 112.51 M169.53 113.64 C113.81 113.53, 60.36 112.98, -0.65 115.16 M-0.81 113.73 C-0.2 68.66, 1.26 22.69, 1.22 -1.42 M-0.61 114.96 C0.28 76.62, -1.41 39.54, 0.38 -0.46" stroke="#000000" stroke-width="1" fill="none"></path></g><g transform="translate(234.89106732728646 511.58984375) rotate(0 79.5 12.5)"><text x="79.5" y="18" font-family="Virgil, Segoe UI Emoji" font-size="20px" fill="#000000" text-anchor="middle" style="white-space: pre;" direction="ltr">UTP Oracle DB</text></g><g stroke-linecap="round" transform="translate(645.0535783196215 223.87109375) rotate(0 84.546875 57.130859375)"><path d="M1.51 1.33 C62.45 0.99, 119.92 1.85, 168.43 -1.61 M0.93 0.29 C49.89 0.76, 100.74 0.09, 169.07 -0.68 M170.92 1.22 C169.02 43.67, 168.54 88.06, 170.67 113.12 M169.68 0.08 C169.31 37.14, 168.64 74.77, 168.48 114.06 M170.73 113.4 C114.49 114.81, 61.24 114.76, 0.91 116.14 M169.08 113.58 C119.71 116.06, 70.31 116.12, 0.79 115.25 M-0.54 115.85 C-1.13 85.21, -0.07 61.32, -0.73 0.46 M0.05 113.97 C-0.5 78.06, -0.14 42.96, -0.86 -0.64" stroke="#000000" stroke-width="1" fill="none"></path></g><g stroke-linecap="round" transform="translate(636.5574845696215 213.744140625) rotate(0 84.546875 57.130859375)"><path d="M1.01 0.91 L168.19 -0.53 L169.91 115.71 L0.15 114.86" stroke="none" stroke-width="0" fill="#ffffff"></path><path d="M1.33 1.76 C36.89 -2.74, 75.1 -1.94, 167.49 -0.03 M0.29 -0.58 C66.29 -1.79, 132.22 -1.6, 168.42 0.88 M170.31 0.58 C168.12 27.83, 168.16 57.04, 167.95 114.81 M169.18 0.12 C168.32 34.66, 168.52 69.8, 168.9 114.41 M168.23 112.82 C132.75 114.11, 95.42 116.56, 1.88 114.14 M168.41 114.61 C113.98 114.92, 58.82 115.03, 0.99 113.65 M1.59 114.04 C-1.14 71.73, 2.3 26.78, 0.46 0.17 M-0.29 113.58 C-1.7 81.43, -1.55 48.36, -0.64 -0.98" stroke="#000000" stroke-width="1" fill="none"></path></g><g transform="translate(641.5574845696215 245.875) rotate(0 79.5 25)"><text x="79.5" y="18" font-family="Virgil, Segoe UI Emoji" font-size="20px" fill="#000000" text-anchor="middle" style="white-space: pre;" direction="ltr">Static content </text><text x="79.5" y="43" font-family="Virgil, Segoe UI Emoji" font-size="20px" fill="#000000" text-anchor="middle" style="white-space: pre;" direction="ltr">servers</text></g><g stroke-linecap="round" transform="translate(10 213.744140625) rotate(0 271.25390625 114.93359375)"><path d="M-1.83 -2 L541.62 1.97 L540.6 230.62 L-1.76 229.09" stroke="none" stroke-width="0" fill="#ffffff"></path><path d="M0.58 0.27 C188.07 2.16, 375.36 2.15, 542.45 -0.74 M-0.04 -0.03 C122.04 1.67, 244.64 2.39, 542.85 0.02 M542.4 -0.4 C542.18 81.88, 542.3 166.24, 541.65 229.22 M542.94 -0.19 C540.06 89.87, 540.82 178.87, 543.07 229.76 M542.35 229.23 C432.54 228.07, 321.43 227.48, 0.39 229.2 M542.13 230.01 C425.71 228.49, 308.59 228.19, -0.33 229.63 M-1.46 231.07 C-0.87 155.08, 0.03 83.2, 0.43 0.1 M0.29 229.86 C-1.14 154.98, -0.6 79.9, 0.11 -0.42" stroke="#000000" stroke-width="1" fill="none"></path></g><g transform="translate(28.578125 228.525390625) rotate(0 63.5 12.5)"><text x="0" y="18" font-family="Virgil, Segoe UI Emoji" font-size="20px" fill="#000000" text-anchor="start" style="white-space: pre;" direction="ltr">UTP Servers</text></g><g stroke-linecap="round" transform="translate(26.90234375 329.306640625) rotate(0 51.5 41.5)"><path d="M-0.99 -1.35 L104.92 -1.67 L103.56 83.22 L-0.6 82.07" stroke="none" stroke-width="0" fill="#ffffff"></path><path d="M-1.48 -0.11 C25.68 -0.9, 51.92 0.79, 101.32 1.23 M0.97 -0.5 C36.83 1.81, 76.49 -0.08, 103.3 -0.26 M103.04 -1.57 C102.37 19.65, 104.84 38.4, 101.01 81.3 M102.49 -0.35 C102.75 22.79, 102.66 45.02, 103.55 83.85 M102.21 83.48 C75.31 85.35, 44.69 85.58, -1.77 84.63 M102.42 83.99 C70.5 84.1, 37.38 83.45, 0.57 82.77 M-0.85 82.03 C1.9 52.77, 0.85 27.76, -0.44 -0.67 M0.43 83.03 C0.12 53.12, -1.08 22.62, -0.73 -0.3" stroke="#000000" stroke-width="1" fill="none"></path></g><g stroke-linecap="round" transform="translate(147.27669270833348 329.306640625) rotate(0 60 42.5)"><path d="M-0.86 -0.48 L120.06 -0.25 L120.02 86.41 L1.19 83.58" stroke="none" stroke-width="0" fill="#ffffff"></path><path d="M-1.15 1.14 C39.6 2.04, 84.65 -0.13, 118.14 1.54 M-0.94 0.76 C44.03 -1.3, 88.55 -0.26, 119.16 0.48 M118.55 1.99 C119.69 23.13, 119.75 46.97, 120 86.3 M119.64 -0.87 C120.55 19.49, 120.4 37.6, 120.18 84.44 M121.35 85.71 C92.77 82.91, 62.03 84.22, 0.59 86.92 M120.78 84.28 C76.36 84.19, 33.54 85.57, -0.26 84.46 M-1.45 84.52 C0.8 69.01, -1.07 48.96, -0.35 -0.89 M-0.25 85.31 C-0.12 56.35, 0.44 27.91, 0.64 0.91" stroke="#000000" stroke-width="1" fill="none"></path></g><g stroke-linecap="round" transform="translate(284.65104166666697 329.306640625) rotate(0 60 42.5)"><path d="M1.32 1.08 L119.36 -1.22 L121.23 86.96 L-0.69 83.18" stroke="none" stroke-width="0" fill="#ffffff"></path><path d="M-0.36 -0.25 C44.85 0.6, 87.79 1.71, 121.07 -1.71 M0.51 -0.2 C28.96 1.49, 59.46 0.79, 120 0.26 M120.83 1.65 C118.92 32.58, 121.25 63.57, 119.23 84.69 M119.55 0.57 C119.47 34.24, 120.79 67.1, 120.32 85.11 M119.39 83.18 C82.85 86.89, 42.97 84.58, -1.78 86.63 M120.43 84.74 C87.11 84.53, 55.23 85.58, -0.84 85.8 M-1.37 84.88 C-1.43 61.17, 0.02 35.01, 0.37 0.25 M0.34 84.43 C0.92 65.19, 0.41 46.82, 0.2 -0.13" stroke="#000000" stroke-width="1" fill="none"></path></g><g transform="translate(31.90234375 345.806640625) rotate(0 46.5 25)"><text x="46.5" y="18" font-family="Virgil, Segoe UI Emoji" font-size="20px" fill="#000000" text-anchor="middle" style="white-space: pre;" direction="ltr">Tomcat </text><text x="46.5" y="43" font-family="Virgil, Segoe UI Emoji" font-size="20px" fill="#000000" text-anchor="middle" style="white-space: pre;" direction="ltr">App</text></g><g transform="translate(152.27669270833348 334.306640625) rotate(0 55 37.5)"><text x="55" y="18" font-family="Virgil, Segoe UI Emoji" font-size="20px" fill="#000000" text-anchor="middle" style="white-space: pre;" direction="ltr">ETL </text><text x="55" y="43" font-family="Virgil, Segoe UI Emoji" font-size="20px" fill="#000000" text-anchor="middle" style="white-space: pre;" direction="ltr">Daemon </text><text x="55" y="68" font-family="Virgil, Segoe UI Emoji" font-size="20px" fill="#000000" text-anchor="middle" style="white-space: pre;" direction="ltr">(In)</text></g><g transform="translate(289.65104166666697 334.306640625) rotate(0 55 37.5)"><text x="55" y="18" font-family="Virgil, Segoe UI Emoji" font-size="20px" fill="#000000" text-anchor="middle" style="white-space: pre;" direction="ltr">ETL </text><text x="55" y="43" font-family="Virgil, Segoe UI Emoji" font-size="20px" fill="#000000" text-anchor="middle" style="white-space: pre;" direction="ltr">Daemon </text><text x="55" y="68" font-family="Virgil, Segoe UI Emoji" font-size="20px" fill="#000000" text-anchor="middle" style="white-space: pre;" direction="ltr">(Out)</text></g><g stroke-linecap="round"><g transform="translate(281.2647978633195 131.49018411583182) rotate(0 0.17088451190511478 38.98573165641645)"><path d="M0.51 -0.58 C0.72 12.38, 1.16 65.5, 0.99 78.55 M-0.68 1.73 C-0.57 14.31, -0.15 64.08, 0.27 76.97" stroke="#000000" stroke-width="1" fill="none"></path></g><g transform="translate(281.2647978633195 131.49018411583182) rotate(0 0.17088451190511478 38.98573165641645)"><path d="M-11.48 49.71 C-5.61 54.89, -4.04 64.16, -1.3 78.33 M-10.28 49.08 C-5.52 60.06, -1.73 68.45, -0.34 77.35" stroke="#000000" stroke-width="1" fill="none"></path></g><g transform="translate(281.2647978633195 131.49018411583182) rotate(0 0.17088451190511478 38.98573165641645)"><path d="M9.03 49.33 C9.22 54.7, 5.12 64.08, -1.3 78.33 M10.24 48.7 C7.57 59.64, 3.93 68.17, -0.34 77.35" stroke="#000000" stroke-width="1" fill="none"></path></g></g><g stroke-linecap="round"><g transform="translate(725.1119663391246 124.59079666394626) rotate(0 1.138552655154399 42.083217482917945)"><path d="M-0.35 -0.92 C0.23 12.86, 2.22 69.67, 2.63 83.87 M1.67 1.21 C2.17 15.65, 1.8 71.04, 1.7 85.09" stroke="#000000" stroke-width="1" fill="none"></path></g><g transform="translate(725.1119663391246 124.59079666394626) rotate(0 1.138552655154399 42.083217482917945)"><path d="M-9.92 56.92 C-6.81 62.56, -3.85 68.55, 0.17 85.06 M-7.82 55.84 C-6.71 63.08, -4.33 69.02, 0.71 85.36" stroke="#000000" stroke-width="1" fill="none"></path></g><g transform="translate(725.1119663391246 124.59079666394626) rotate(0 1.138552655154399 42.083217482917945)"><path d="M10.6 57.04 C9.01 62.6, 7.27 68.56, 0.17 85.06 M12.7 55.96 C9.49 63.1, 7.56 69, 0.71 85.36" stroke="#000000" stroke-width="1" fill="none"></path></g></g><g stroke-linecap="round"><g transform="translate(102.68256024771108 414.9507288993964) rotate(0 88.42326035593283 30.738145057477027)"><path d="M0.25 0.56 C30 10.72, 148.28 50.49, 177.93 60.41 M-1.08 -0.19 C28.56 10.17, 147.24 51.47, 177 61.67" stroke="#000000" stroke-width="1" fill="none"></path></g><g transform="translate(102.68256024771108 414.9507288993964) rotate(0 88.42326035593283 30.738145057477027)"><path d="M147.94 62.21 C153.71 62.36, 160.78 61.21, 175.91 62.34 M147.46 61.69 C154.52 62.53, 161.74 61.54, 177.63 61.73" stroke="#000000" stroke-width="1" fill="none"></path></g><g transform="translate(102.68256024771108 414.9507288993964) rotate(0 88.42326035593283 30.738145057477027)"><path d="M154.64 42.81 C158.63 47.89, 164 51.67, 175.91 62.34 M154.17 42.29 C159.7 48.13, 165.19 52.12, 177.63 61.73" stroke="#000000" stroke-width="1" fill="none"></path></g></g><g stroke-linecap="round"><g transform="translate(96.31900506409124 328.32775532654) rotate(0 118.28572000839574 -17.77054785143207)"><path d="M-1.19 0.56 C19.9 -5.01, 87.47 -33.92, 126.89 -34.29 C166.32 -34.66, 216.96 -7.12, 235.35 -1.66 M0.38 -0.19 C21.3 -6.04, 86.41 -35.98, 125.98 -36.11 C165.54 -36.23, 219.1 -6.8, 237.77 -0.93" stroke="#000000" stroke-width="1" fill="none"></path></g><g transform="translate(96.31900506409124 328.32775532654) rotate(0 118.28572000839574 -17.77054785143207)"><path d="M208.73 -2.02 C218.54 -2.96, 225.49 0.54, 236.15 0.54 M208.09 -2.17 C217.12 -2.69, 227.76 -2.23, 237.96 -0.14" stroke="#000000" stroke-width="1" fill="none"></path></g><g transform="translate(96.31900506409124 328.32775532654) rotate(0 118.28572000839574 -17.77054785143207)"><path d="M216.51 -21.01 C223.65 -15.82, 228.06 -6.11, 236.15 0.54 M215.87 -21.16 C222.24 -15.52, 230.36 -8.92, 237.96 -0.14" stroke="#000000" stroke-width="1" fill="none"></path></g></g><g stroke-linecap="round"><g transform="translate(349.1462465717518 419.73199468600797) rotate(0 -47.02251568278905 136.3700028860361)"><path d="M0.2 0.65 C20.45 13.65, 105.46 35.99, 121.28 78.09 C137.1 120.19, 139.99 223.35, 95.1 253.26 C50.22 283.17, -94.68 270.56, -148.01 257.55 C-201.34 244.54, -211.88 188.67, -224.87 175.2 M-1.15 -0.05 C18.96 12.59, 103.93 33.85, 120.39 76.31 C136.84 118.78, 142.29 224.42, 97.59 254.71 C52.89 285.01, -93.83 271.31, -147.83 258.06 C-201.83 244.8, -213.5 188.84, -226.39 175.19" stroke="#000000" stroke-width="1" fill="none"></path></g><g transform="translate(349.1462465717518 419.73199468600797) rotate(0 -47.02251568278905 136.3700028860361)"><path d="M-202.27 194.58 C-208.84 187.68, -216.06 183.28, -228.28 175.03 M-203.13 193.45 C-209.46 189.7, -213.99 185.61, -225.43 175.98" stroke="#000000" stroke-width="1" fill="none"></path></g><g transform="translate(349.1462465717518 419.73199468600797) rotate(0 -47.02251568278905 136.3700028860361)"><path d="M-220.01 204.89 C-221.54 195.02, -223.7 187.69, -228.28 175.03 M-220.87 203.76 C-222.9 197.46, -223.25 190.93, -225.43 175.98" stroke="#000000" stroke-width="1" fill="none"></path></g></g><g stroke-linecap="round"><g transform="translate(189.14828766931214 478.41429275765836) rotate(0 9.916479947614107 -31.8295894056061)"><path d="M1.15 0.44 C4.55 -10.08, 16.56 -53.4, 19.54 -64.09 M0.29 -0.38 C3.63 -10.65, 15.72 -52.44, 18.69 -62.79" stroke="#000000" stroke-width="1" fill="none"></path></g><g transform="translate(189.14828766931214 478.41429275765836) rotate(0 9.916479947614107 -31.8295894056061)"><path d="M21.45 -32.53 C19.78 -40.16, 19.89 -45.99, 19.99 -62.2 M19.91 -32.79 C19.5 -40.35, 18.96 -50.62, 18.09 -62.82" stroke="#000000" stroke-width="1" fill="none"></path></g><g transform="translate(189.14828766931214 478.41429275765836) rotate(0 9.916479947614107 -31.8295894056061)"><path d="M1.73 -38.22 C4.53 -44.75, 9.15 -49.28, 19.99 -62.2 M0.2 -38.49 C5.34 -44.27, 10.37 -52.93, 18.09 -62.82" stroke="#000000" stroke-width="1" fill="none"></path></g></g><g stroke-linecap="round"><g transform="translate(146.9178681727651 382.6808702964381) rotate(0 -9.871416747028206 -0.399796274986727)"><path d="M0.07 0.64 C-3.37 0.82, -16.62 0.52, -19.81 0.38 M-1.36 -0.07 C-4.5 -0.19, -14.56 -1.67, -17.67 -1.48" stroke="#000000" stroke-width="1" fill="none"></path></g><g transform="translate(146.9178681727651 382.6808702964381) rotate(0 -9.871416747028206 -0.399796274986727)"><path d="M-8.24 -5.12 C-11.64 -3.5, -15.38 -2.75, -18.2 -1.17 M-8.38 -3.82 C-11.1 -3.28, -12.53 -3.37, -17.87 -1.76" stroke="#000000" stroke-width="1" fill="none"></path></g><g transform="translate(146.9178681727651 382.6808702964381) rotate(0 -9.871416747028206 -0.399796274986727)"><path d="M-8.53 1.27 C-11.79 0.55, -15.42 -1.04, -18.2 -1.17 M-8.67 2.58 C-11.28 1.62, -12.64 0.03, -17.87 -1.76" stroke="#000000" stroke-width="1" fill="none"></path></g></g><g stroke-linecap="round"><g transform="translate(74.76154051541198 326.17053468900394) rotate(0 279.4524239246359 -106.36489110746399)"><path d="M-0.9 -0.09 C29.42 -12.34, 87.87 -38.95, 181.32 -74.37 C274.77 -109.8, 496.8 -189.74, 559.8 -212.64 M0.83 -1.19 C31.04 -13.68, 87.35 -40.83, 180.36 -75.95 C273.36 -111.08, 495.74 -189.46, 558.88 -211.94" stroke="#000000" stroke-width="1" fill="none"></path></g><g transform="translate(74.76154051541198 326.17053468900394) rotate(0 279.4524239246359 -106.36489110746399)"><path d="M535.59 -192.88 C543.39 -197.93, 545.49 -203.45, 558.41 -210.31 M535.78 -192.25 C543.95 -200.24, 554.38 -208, 559.35 -212.89" stroke="#000000" stroke-width="1" fill="none"></path></g><g transform="translate(74.76154051541198 326.17053468900394) rotate(0 279.4524239246359 -106.36489110746399)"><path d="M528.73 -212.22 C538.1 -212.38, 541.92 -213.07, 558.41 -210.31 M528.92 -211.59 C539.92 -211.9, 553.08 -211.96, 559.35 -212.89" stroke="#000000" stroke-width="1" fill="none"></path></g></g></svg>